<svg width="18" height="18" viewBox="0 0 18 18" fill="none" xmlns="http://www.w3.org/2000/svg">
<path d="M3.75 9C3.75 9.68944 3.8858 10.3721 4.14963 11.0091C4.41347 11.646 4.80018 12.2248 5.28769 12.7123C5.7752 13.1998 6.35395 13.5865 6.99091 13.8504C7.62787 14.1142 8.31056 14.25 9 14.25C9.68944 14.25 10.3721 14.1142 11.0091 13.8504C11.646 13.5865 12.2248 13.1998 12.7123 12.7123C13.1998 12.2248 13.5865 11.646 13.8504 11.0091C14.1142 10.3721 14.25 9.68944 14.25 9C14.25 8.31056 14.1142 7.62787 13.8504 6.99091C13.5865 6.35395 13.1998 5.7752 12.7123 5.28769C12.2248 4.80018 11.646 4.41347 11.0091 4.14963C10.3721 3.8858 9.68944 3.75 9 3.75C8.31056 3.75 7.62787 3.8858 6.99091 4.14963C6.35395 4.41347 5.7752 4.80018 5.28769 5.28769C4.80018 5.7752 4.41347 6.35395 4.14963 6.99091C3.8858 7.62787 3.75 8.31056 3.75 9ZM3.75 9H1.5ZM14.25 9H16.5Z" fill="white"/>
<path d="M14.25 9C14.25 8.31056 14.1142 7.62787 13.8504 6.99091C13.5865 6.35395 13.1998 5.7752 12.7123 5.28769C12.2248 4.80018 11.646 4.41347 11.0091 4.14963C10.3721 3.8858 9.68944 3.75 9 3.75C8.31056 3.75 7.62787 3.8858 6.99091 4.14963C6.35395 4.41347 5.7752 4.80018 5.28769 5.28769C4.80018 5.7752 4.41347 6.35395 4.14963 6.99091C3.8858 7.62787 3.75 8.31056 3.75 9C3.75 9.68944 3.8858 10.3721 4.14963 11.0091C4.41347 11.646 4.80018 12.2248 5.28769 12.7123C5.7752 13.1998 6.35395 13.5865 6.99091 13.8504C7.62787 14.1142 8.31056 14.25 9 14.25C9.68944 14.25 10.3721 14.1142 11.0091 13.8504C11.646 13.5865 12.2248 13.1998 12.7123 12.7123C13.1998 12.2248 13.5865 11.646 13.8504 11.0091C14.1142 10.3721 14.25 9.68944 14.25 9ZM3.75 9H1.5M14.25 9H16.5" stroke="white" stroke-width="2" stroke-linecap="round" stroke-linejoin="round"/>
<path d="M7.5 10.5V8.25C7.5 7.473 8.17125 6.75 9 6.75C9.82875 6.75 10.5 7.473 10.5 8.25V10.5M10.5 9H7.5" stroke="#009846" stroke-linecap="round" stroke-linejoin="round"/>
</svg>
