<svg width="21" height="15" viewBox="0 0 21 15" fill="none" xmlns="http://www.w3.org/2000/svg">
<path fill-rule="evenodd" clip-rule="evenodd" d="M20.25 6C20.664 6 21 5.664 21 5.25V2.25C21 1.00725 19.9928 0 18.75 0H2.25C1.00725 0 0 1.00725 0 2.25V5.25C0 5.664 0.336 6 0.75 6C1.578 6 2.25 6.672 2.25 7.5C2.25 8.328 1.578 9 0.75 9C0.336 9 0 9.336 0 9.75V12.75C0 13.9928 1.00725 15 2.25 15H18.75C19.9928 15 21 13.9928 21 12.75V9.75C20.9925 9.309 20.721 9.07725 20.25 9C19.422 9 18.75 8.328 18.75 7.5C18.75 6.672 19.422 6 20.25 6ZM15 1.5V3C15 3.414 14.664 3.75 14.25 3.75C13.836 3.75 13.5 3.414 13.5 3V1.5H2.25C1.836 1.5 1.5 1.836 1.5 2.25V4.59451C2.793 4.92826 3.75 6.10275 3.75 7.5C3.75 8.89725 2.793 10.0717 1.5 10.4055V12.75C1.5 13.164 1.836 13.5 2.25 13.5H13.5V12C13.5 11.586 13.836 11.25 14.25 11.25C14.664 11.25 15 11.586 15 12V13.5H18.75C19.164 13.5 19.5 13.164 19.5 12.75V10.4055C18.207 10.0717 17.25 8.8965 17.25 7.5C17.25 6.10275 18.207 4.92826 19.5 4.59451V2.25C19.5 1.836 19.164 1.5 18.75 1.5H15ZM13.5 6V9C13.5 9.414 13.836 9.75 14.25 9.75C14.664 9.75 15 9.414 15 9V6C15 5.586 14.664 5.25 14.25 5.25C13.836 5.25 13.5 5.586 13.5 6Z" fill="black"/>
</svg>
