<svg width="27" height="17" viewBox="0 0 27 17" fill="none" xmlns="http://www.w3.org/2000/svg">
<path d="M10.1504 15.4004L14.8171 8.40039H7.81706L12.4837 1.40039M24.7337 9.56706V7.23372M15.4004 15.4004H15.6337C17.5939 15.4004 18.574 15.4004 19.3227 15.0189C19.9813 14.6834 20.5167 14.1479 20.8522 13.4894C21.2337 12.7407 21.2337 11.7606 21.2337 9.80039V6.06706C21.2337 4.98209 21.2337 4.43961 21.1145 3.99452C20.7908 2.7867 19.8474 1.84329 18.6396 1.51965C18.1945 1.40039 17.652 1.40039 16.5671 1.40039M7.23372 1.40039H7.00039C5.04021 1.40039 4.06012 1.40039 3.31142 1.78187C2.65286 2.11742 2.11742 2.65286 1.78187 3.31142C1.40039 4.06011 1.40039 5.04021 1.40039 7.00039V10.7337C1.40039 11.8187 1.40039 12.3612 1.51965 12.8063C1.84329 14.0141 2.7867 14.9575 3.99452 15.2811C4.43961 15.4004 4.98209 15.4004 6.06706 15.4004" stroke="white" stroke-width="2.8" stroke-linecap="round" stroke-linejoin="round"/>
</svg>
