<svg width="17" height="14" viewBox="0 0 17 14" fill="none" xmlns="http://www.w3.org/2000/svg">
<path d="M2.91406 7.28516H5.09961M0.728516 4.37109L2.18555 5.09961L3.11123 2.32256C3.3023 1.74935 3.39784 1.46274 3.57504 1.25085C3.73152 1.06373 3.93247 0.918893 4.15946 0.829615C4.41652 0.728516 4.71863 0.728516 5.32285 0.728516H10.7045C11.3087 0.728516 11.6108 0.728516 11.8679 0.829615C12.0949 0.918893 12.2958 1.06373 12.4523 1.25085C12.6295 1.46274 12.725 1.74935 12.9161 2.32256L13.8418 5.09961L15.2988 4.37109M10.9277 7.28516H13.1133M4.22539 5.09961H11.802C13.026 5.09961 13.638 5.09961 14.1055 5.33782C14.5167 5.54736 14.8511 5.8817 15.0606 6.29294C15.2988 6.76045 15.2988 7.37246 15.2988 8.59648V10.5635C15.2988 10.902 15.2988 11.0712 15.2708 11.212C15.1559 11.79 14.704 12.2418 14.126 12.3568C13.9853 12.3848 13.816 12.3848 13.4775 12.3848H13.1133C12.3086 12.3848 11.6562 11.7324 11.6562 10.9277C11.6562 10.7266 11.4932 10.5635 11.292 10.5635H4.73535C4.53418 10.5635 4.37109 10.7266 4.37109 10.9277C4.37109 11.7324 3.71876 12.3848 2.91406 12.3848H2.5498C2.2113 12.3848 2.04204 12.3848 1.90129 12.3568C1.3233 12.2418 0.871482 11.79 0.756512 11.212C0.728516 11.0712 0.728516 10.902 0.728516 10.5635V8.59648C0.728516 7.37246 0.728516 6.76045 0.966726 6.29294C1.17626 5.8817 1.51061 5.54736 1.92184 5.33782C2.38936 5.09961 3.00137 5.09961 4.22539 5.09961Z" stroke="white" stroke-width="1.45703" stroke-linecap="round" stroke-linejoin="round"/>
</svg>
