<svg width="50" height="50" viewBox="0 0 50 50" fill="none" xmlns="http://www.w3.org/2000/svg">
<path d="M48.8653 20.0099L41.2257 27.6495L20.0089 48.8663C19.8819 48.9939 19.7309 49.0951 19.5646 49.1641C19.3984 49.2332 19.2202 49.2688 19.0401 49.2688C18.8601 49.2688 18.6819 49.2332 18.5156 49.1641C18.3494 49.0951 18.1984 48.9939 18.0714 48.8663L14.2257 45.0196C14.0038 44.8004 13.8639 44.5115 13.8296 44.2015C13.7953 43.8914 13.8686 43.579 14.0372 43.3165C14.7024 42.2995 14.9973 41.0846 14.8723 39.8758C14.7473 38.667 14.21 37.5381 13.3507 36.6788C12.4914 35.8195 11.3625 35.2822 10.1537 35.1572C8.94494 35.0322 7.72997 35.3271 6.71299 35.9923C6.45064 36.161 6.13827 36.2345 5.8282 36.2004C5.51814 36.1662 5.22922 36.0266 5.00987 35.8048L1.13292 31.9278C1.00536 31.8008 0.904145 31.6498 0.835083 31.4836C0.76602 31.3174 0.730469 31.1391 0.730469 30.9591C0.730469 30.7791 0.76602 30.6008 0.835083 30.4346C0.904145 30.2683 1.00536 30.1174 1.13292 29.9903L29.9894 1.13389C30.1164 1.00634 30.2674 0.905122 30.4336 0.836059C30.5998 0.766997 30.7781 0.731445 30.9581 0.731445C31.1381 0.731445 31.3164 0.766997 31.4826 0.836059C31.6489 0.905122 31.7998 1.00634 31.9269 1.13389L35.8009 5.00889C36.0229 5.22831 36.1627 5.51741 36.1969 5.82769C36.231 6.13797 36.1574 6.45055 35.9884 6.71299C35.3244 7.73007 35.0304 8.94462 35.1559 10.1528C35.2814 11.3609 35.8187 12.4891 36.6776 13.348C37.5365 14.2069 38.6647 14.7442 39.8728 14.8697C41.081 14.9952 42.2955 14.7012 43.3126 14.0372C43.5755 13.8681 43.8887 13.7947 44.1995 13.8293C44.5102 13.864 44.7995 14.0047 45.0187 14.2276L48.8634 18.0724C48.9911 18.1993 49.0924 18.3501 49.1617 18.5163C49.2309 18.6825 49.2666 18.8607 49.2668 19.0407C49.267 19.2207 49.2316 19.399 49.1627 19.5653C49.0938 19.7316 48.9928 19.8827 48.8653 20.0099Z" fill="#C1C4CF"/>
<path d="M48.8662 18.0723L45.9365 15.1426C46.0641 15.2696 46.1653 15.4206 46.2344 15.5868C46.3034 15.7531 46.339 15.9313 46.339 16.1113C46.339 16.2913 46.3034 16.4696 46.2344 16.6358C46.1653 16.8021 46.0641 16.953 45.9365 17.0801L38.2969 24.7197L17.0801 45.9365C16.8247 46.1927 16.4783 46.3372 16.1166 46.3385C15.755 46.3398 15.4075 46.1977 15.1504 45.9434L18.0723 48.8662C18.1993 48.9938 18.3503 49.095 18.5165 49.164C18.6828 49.2331 18.861 49.2687 19.041 49.2687C19.221 49.2687 19.3993 49.2331 19.5655 49.164C19.7318 49.095 19.8827 48.9938 20.0098 48.8662L41.2266 27.6494L48.8662 20.0098C48.9938 19.8827 49.095 19.7318 49.164 19.5655C49.2331 19.3993 49.2687 19.221 49.2687 19.041C49.2687 18.861 49.2331 18.6828 49.164 18.5165C49.095 18.3503 48.9938 18.1993 48.8662 18.0723Z" fill="#C1C4CF"/>
<path d="M25.3008 10.6865C25.2328 10.7546 25.152 10.8086 25.0631 10.8454C24.9742 10.8823 24.8789 10.9012 24.7827 10.9012C24.6865 10.9012 24.5912 10.8823 24.5023 10.8454C24.4134 10.8086 24.3327 10.7546 24.2646 10.6865L22.3516 8.77344L23.3877 7.7373L25.3008 9.65137C25.3688 9.7193 25.4228 9.79998 25.4596 9.88879C25.4964 9.9776 25.5154 10.0728 25.5154 10.1689C25.5154 10.2651 25.4964 10.3603 25.4596 10.4491C25.4228 10.5379 25.3688 10.6186 25.3008 10.6865ZM42.2637 26.6133L41.2275 27.6494L39.3145 25.7363C39.181 25.5983 39.1071 25.4133 39.1086 25.2212C39.1102 25.0292 39.1872 24.8455 39.3229 24.7096C39.4586 24.5737 39.6423 24.4966 39.8343 24.4949C40.0264 24.4931 40.2114 24.5668 40.3496 24.7002L42.2637 26.6133ZM33.3076 19.4268C33.2115 19.4268 33.1162 19.4078 33.0274 19.3709C32.9386 19.3341 32.8579 19.28 32.79 19.2119L30.876 17.2979C30.7426 17.1597 30.6689 16.9746 30.6706 16.7826C30.6724 16.5905 30.7495 16.4069 30.8854 16.2711C31.0212 16.1354 31.205 16.0585 31.397 16.0569C31.5891 16.0553 31.774 16.1292 31.9121 16.2627L33.8262 18.1758C33.9284 18.2784 33.9979 18.409 34.026 18.5511C34.0541 18.6932 34.0395 18.8404 33.9841 18.9742C33.9286 19.108 33.8348 19.2224 33.7144 19.3029C33.594 19.3835 33.4525 19.4266 33.3076 19.4268ZM37.8311 23.9492C37.7349 23.9494 37.6397 23.9306 37.5509 23.8939C37.4621 23.8572 37.3814 23.8033 37.3135 23.7354L35.3994 21.8213C35.3314 21.7533 35.2774 21.6725 35.2406 21.5836C35.2038 21.4947 35.1848 21.3994 35.1848 21.3032C35.1848 21.207 35.2038 21.1117 35.2406 21.0228C35.2774 20.934 35.3314 20.8532 35.3994 20.7852C35.4674 20.7171 35.5482 20.6632 35.6371 20.6263C35.726 20.5895 35.8213 20.5706 35.9175 20.5706C36.0137 20.5706 36.109 20.5895 36.1979 20.6263C36.2867 20.6632 36.3675 20.7171 36.4355 20.7852L38.3496 22.6992C38.452 22.8017 38.5216 22.9322 38.5498 23.0743C38.578 23.2164 38.5634 23.3637 38.5079 23.4974C38.4524 23.6312 38.3585 23.7456 38.238 23.826C38.1175 23.9064 37.9759 23.9493 37.8311 23.9492ZM28.7842 14.9033C28.688 14.9033 28.5928 14.8844 28.504 14.8475C28.4151 14.8106 28.3345 14.7566 28.2666 14.6885L26.3525 12.7744C26.2826 12.7068 26.2269 12.626 26.1885 12.5366C26.1502 12.4472 26.13 12.3511 26.1292 12.2539C26.1284 12.1566 26.147 12.0602 26.1839 11.9702C26.2207 11.8802 26.2752 11.7984 26.344 11.7297C26.4128 11.661 26.4946 11.6066 26.5846 11.5698C26.6746 11.533 26.7711 11.5146 26.8683 11.5154C26.9656 11.5163 27.0617 11.5366 27.151 11.575C27.2403 11.6134 27.3211 11.6693 27.3887 11.7393L29.3027 13.6523C29.405 13.755 29.4745 13.8855 29.5026 14.0276C29.5307 14.1697 29.5161 14.317 29.4606 14.4508C29.4052 14.5846 29.3113 14.6989 29.1909 14.7795C29.0706 14.86 28.929 14.9031 28.7842 14.9033Z" fill="white"/>
</svg>
