<svg width="18" height="18" viewBox="0 0 18 18" fill="none" xmlns="http://www.w3.org/2000/svg">
<path d="M15 7.5H10.5V3.75H15V7.5ZM16.5 15.75V3.75C16.5 3.3375 16.353 2.9845 16.059 2.691C15.765 2.3975 15.412 2.2505 15 2.25H10.5C10.0875 2.25 9.73425 2.397 9.44025 2.691C9.14625 2.985 8.9995 3.338 9 3.75V9H8.0625C7.7 9 7.3905 9.12825 7.134 9.38475C6.8775 9.64125 6.7495 9.9505 6.75 10.3125V13.7812C6.75 13.9937 6.6625 14.1875 6.4875 14.3625C6.3125 14.5375 6.11875 14.625 5.90625 14.625C5.68125 14.625 5.48425 14.5375 5.31525 14.3625C5.14625 14.1875 5.062 13.9937 5.0625 13.7812V6.75H5.25C5.4625 6.75 5.6405 6.678 5.784 6.534C5.9275 6.39 5.9995 6.212 6 6V4.5H5.625V3.375H4.875V4.5H4.125V3.375H3.375V4.5H3V6C3 6.2125 3.072 6.39075 3.216 6.53475C3.36 6.67875 3.538 6.7505 3.75 6.75H3.9375V13.7812C3.9375 14.3062 4.12825 14.7657 4.50975 15.1597C4.89125 15.5537 5.3565 15.7505 5.9055 15.75C6.443 15.75 6.9055 15.553 7.293 15.159C7.6805 14.765 7.87425 14.3057 7.87425 13.7812V10.3125C7.87425 10.25 7.88975 10.2032 7.92075 10.1722C7.95175 10.1412 7.99875 10.1255 8.06175 10.125H9V15.75H16.5ZM13.125 14.25L11.25 11.25H12.375V9L14.25 12H13.125V14.25Z" fill="white"/>
</svg>
