<svg width="24" height="24" viewBox="0 0 24 24" fill="none" xmlns="http://www.w3.org/2000/svg">
<path d="M18.75 3.75H5.25C4.25544 3.75 3.30161 4.14509 2.59835 4.84835C1.89509 5.55161 1.5 6.50544 1.5 7.5V14.25C1.5 14.7425 1.597 15.2301 1.78545 15.6851C1.97391 16.14 2.25013 16.5534 2.59835 16.9017C3.30161 17.6049 4.25544 18 5.25 18H5.535L6.8325 20.5875C6.88652 20.6927 6.9645 20.7838 7.06017 20.8534C7.15583 20.923 7.2665 20.9691 7.38325 20.9881C7.50001 21.007 7.61959 20.9983 7.73236 20.9626C7.84513 20.9269 7.94794 20.8652 8.0325 20.7825L10.8075 18H18.75C19.2425 18 19.7301 17.903 20.1851 17.7145C20.64 17.5261 21.0534 17.2499 21.4016 16.9017C21.7499 16.5534 22.0261 16.14 22.2145 15.6851C22.403 15.2301 22.5 14.7425 22.5 14.25V7.5C22.5 6.50544 22.1049 5.55161 21.4016 4.84835C20.6984 4.14509 19.7446 3.75 18.75 3.75ZM20.0325 14.0325C19.8903 14.1719 19.6991 14.25 19.5 14.25C19.3009 14.25 19.1097 14.1719 18.9675 14.0325L18.6675 13.7325C18.1318 14.0728 17.5097 14.2524 16.875 14.25C16.2075 14.25 15.555 14.0521 15 13.6812C14.4449 13.3104 14.0124 12.7833 13.7569 12.1666C13.5015 11.5499 13.4346 10.8713 13.5648 10.2166C13.6951 9.56188 14.0165 8.96052 14.4885 8.48851C14.9605 8.01651 15.5619 7.69507 16.2166 7.56485C16.8713 7.43462 17.5499 7.50146 18.1666 7.75691C18.7833 8.01235 19.3104 8.44493 19.6812 8.99995C20.0521 9.55497 20.25 10.2075 20.25 10.875C20.2524 11.5097 20.0728 12.1318 19.7325 12.6675L20.0325 12.9675C20.173 13.1091 20.2519 13.3005 20.2519 13.5C20.2519 13.6995 20.173 13.8909 20.0325 14.0325ZM8.94 13.7925C8.85747 13.9679 8.71021 14.1046 8.5291 14.1738C8.348 14.243 8.14712 14.2394 7.96862 14.1638C7.79011 14.0881 7.64784 13.9462 7.57166 13.768C7.49548 13.5897 7.4913 13.3888 7.56 13.2075L9.81 7.9575C9.86763 7.82221 9.96377 7.70684 10.0865 7.62576C10.2091 7.54467 10.3529 7.50144 10.5 7.50144C10.6471 7.50144 10.7909 7.54467 10.9135 7.62576C11.0362 7.70684 11.1324 7.82221 11.19 7.9575L13.44 13.2075C13.5174 13.3905 13.519 13.5968 13.4445 13.781C13.37 13.9652 13.2254 14.1123 13.0425 14.19C12.9497 14.2285 12.8504 14.2489 12.75 14.25C12.6028 14.2499 12.4589 14.2064 12.3362 14.1251C12.2135 14.0437 12.1174 13.9281 12.06 13.7925L11.61 12.75H9.39L8.94 13.7925ZM3.75 8.25C3.75 8.05109 3.82902 7.86032 3.96967 7.71967C4.11032 7.57902 4.30109 7.5 4.5 7.5H6.75C6.94891 7.5 7.13968 7.57902 7.28033 7.71967C7.42098 7.86032 7.5 8.05109 7.5 8.25C7.5 8.44891 7.42098 8.63968 7.28033 8.78033C7.13968 8.92098 6.94891 9 6.75 9H5.25V10.5H6.75C6.94891 10.5 7.13968 10.579 7.28033 10.7197C7.42098 10.8603 7.5 11.0511 7.5 11.25C7.5 11.4489 7.42098 11.6397 7.28033 11.7803C7.13968 11.921 6.94891 12 6.75 12H5.25V13.5C5.25 13.6989 5.17098 13.8897 5.03033 14.0303C4.88968 14.171 4.69891 14.25 4.5 14.25C4.30109 14.25 4.11032 14.171 3.96967 14.0303C3.82902 13.8897 3.75 13.6989 3.75 13.5V8.25Z" fill="white"/>
<path d="M16.875 12.75C17.9105 12.75 18.75 11.9105 18.75 10.875C18.75 9.83947 17.9105 9 16.875 9C15.8395 9 15 9.83947 15 10.875C15 11.9105 15.8395 12.75 16.875 12.75Z" fill="white"/>
<path d="M10.0273 11.2498H10.9723L10.4998 10.1548L10.0273 11.2498Z" fill="white"/>
</svg>
