<svg width="19" height="19" viewBox="0 0 19 19" fill="none" xmlns="http://www.w3.org/2000/svg">
<g clip-path="url(#clip0_31851_2609)">
<path d="M18.4062 12.4688H17.2188V9.5C17.2187 7.45286 16.4055 5.48957 14.958 4.04202C13.5104 2.59447 11.5471 1.78125 9.5 1.78125C7.45286 1.78125 5.48957 2.59447 4.04202 4.04202C2.59447 5.48957 1.78125 7.45286 1.78125 9.5V12.4688H0.59375V9.5C0.59375 7.13792 1.53208 4.87258 3.20233 3.20233C4.87258 1.53208 7.13792 0.59375 9.5 0.59375C11.8621 0.59375 14.1274 1.53208 15.7977 3.20233C17.4679 4.87258 18.4062 7.13792 18.4062 9.5V12.4688Z" fill="white"/>
<path d="M4.29281 16.0312H3.5625C3.17264 16.0312 2.78659 15.9545 2.42641 15.8053C2.06622 15.6561 1.73895 15.4374 1.46328 15.1617C0.906528 14.605 0.59375 13.8499 0.59375 13.0625V11.875C0.59375 11.0876 0.906528 10.3325 1.46328 9.77578C2.02003 9.21903 2.77514 8.90625 3.5625 8.90625H4.29281C4.57316 8.91092 4.84045 9.02558 5.03704 9.22551C5.23364 9.42543 5.34379 9.69461 5.34375 9.975V14.9625C5.34379 15.2429 5.23364 15.5121 5.03704 15.712C4.84045 15.9119 4.57316 16.0266 4.29281 16.0312ZM3.5625 10.0938C3.09008 10.0938 2.63702 10.2814 2.30297 10.6155C1.96892 10.9495 1.78125 11.4026 1.78125 11.875V13.0625C1.78125 13.5349 1.96892 13.988 2.30297 14.322C2.63702 14.6561 3.09008 14.8437 3.5625 14.8438H4.15625V10.0938H3.5625ZM15.4375 16.0312H14.725C14.4415 16.0312 14.1697 15.9186 13.9693 15.7182C13.7689 15.5178 13.6562 15.246 13.6562 14.9625V9.975C13.6562 9.69155 13.7689 9.41971 13.9693 9.21928C14.1697 9.01885 14.4415 8.90625 14.725 8.90625H15.4375C16.2249 8.90625 16.98 9.21903 17.5367 9.77578C18.0935 10.3325 18.4062 11.0876 18.4062 11.875V13.0625C18.4062 13.8499 18.0935 14.605 17.5367 15.1617C16.98 15.7185 16.2249 16.0312 15.4375 16.0312ZM14.8438 14.8438H15.4375C15.9099 14.8437 16.363 14.6561 16.697 14.322C17.0311 13.988 17.2187 13.5349 17.2188 13.0625V11.875C17.2187 11.4026 17.0311 10.9495 16.697 10.6155C16.363 10.2814 15.9099 10.0938 15.4375 10.0938H14.8438V14.8438Z" fill="white"/>
<path d="M3.5625 9.5H4.29281C4.41879 9.5 4.53961 9.55004 4.62869 9.63912C4.71777 9.7282 4.76781 9.84902 4.76781 9.975V14.9625C4.76781 15.0885 4.71777 15.2093 4.62869 15.2984C4.53961 15.3875 4.41879 15.4375 4.29281 15.4375H3.5625C2.93261 15.4375 2.32852 15.1873 1.88312 14.7419C1.43772 14.2965 1.1875 13.6924 1.1875 13.0625V11.875C1.1875 11.2451 1.43772 10.641 1.88312 10.1956C2.32852 9.75022 2.93261 9.5 3.5625 9.5Z" fill="white"/>
<path d="M15.4375 15.4375H14.725C14.599 15.4375 14.4782 15.3875 14.3891 15.2984C14.3 15.2093 14.25 15.0885 14.25 14.9625V9.975C14.25 9.84902 14.3 9.7282 14.3891 9.63912C14.4782 9.55004 14.599 9.5 14.725 9.5H15.4375C16.0674 9.5 16.6715 9.75022 17.1169 10.1956C17.5623 10.641 17.8125 11.2451 17.8125 11.875V13.0625C17.8125 13.6924 17.5623 14.2965 17.1169 14.7419C16.6715 15.1873 16.0674 15.4375 15.4375 15.4375Z" fill="white"/>
<path d="M14.1847 18.4062H10.0938C9.93628 18.4062 9.78525 18.3437 9.6739 18.2323C9.56256 18.121 9.5 17.97 9.5 17.8125C9.5 17.655 9.56256 17.504 9.6739 17.3927C9.78525 17.2813 9.93628 17.2188 10.0938 17.2188H14.25C14.4075 17.2188 14.5585 17.1562 14.6698 17.0448C14.7812 16.9335 14.8438 16.7825 14.8438 16.625V15.4375H16.0313V16.625C16.0323 16.9162 15.962 17.2033 15.8264 17.4611C15.6908 17.7188 15.4941 17.9394 15.2534 18.1034C14.9364 18.311 14.5635 18.4166 14.1847 18.4062Z" fill="white"/>
</g>
<defs>
<clipPath id="clip0_31851_2609">
<rect width="19" height="19" fill="white"/>
</clipPath>
</defs>
</svg>
