<svg width="47" height="60" viewBox="0 0 47 60" fill="none" xmlns="http://www.w3.org/2000/svg">
<path d="M47.4118 39.0554H21.5851C20.5841 39.0584 19.6162 38.6673 18.8622 37.9549C18.1081 37.2426 17.6193 36.2578 17.487 35.1842L14.6889 12.8409C14.6195 12.2923 14.7088 11.7339 14.9447 11.2425C15.1805 10.7511 15.5513 10.3508 16.006 10.0968C16.4607 9.8427 16.9771 9.74731 17.4839 9.82373C17.9908 9.90014 18.4634 10.1446 18.8366 10.5235L23.4547 15.1448C23.6988 15.4001 23.9888 15.5984 24.3067 15.7272C24.6246 15.8561 24.9636 15.9129 25.3026 15.8941C25.6417 15.8752 25.9735 15.7812 26.2775 15.6177C26.5816 15.4543 26.8513 15.2249 27.0699 14.9439L32.5918 7.898C32.8242 7.59929 33.1142 7.35916 33.4414 7.19442C33.7686 7.02969 34.1252 6.94434 34.4861 6.94434C34.847 6.94434 35.2035 7.02969 35.5308 7.19442C35.858 7.35916 36.1479 7.59929 36.3804 7.898L41.927 14.9439C42.1437 15.2206 42.4099 15.4468 42.7097 15.6088C43.0094 15.7709 43.3365 15.8654 43.671 15.8867C44.0056 15.908 44.3406 15.8556 44.6559 15.7327C44.9711 15.6098 45.2601 15.4189 45.5051 15.1716L50.1232 10.5503C50.4928 10.1584 50.9665 9.90162 51.4779 9.81602C51.9893 9.73043 52.5126 9.82032 52.9743 10.073C53.436 10.3258 53.813 10.7287 54.0522 11.2251C54.2914 11.7215 54.3809 12.2866 54.308 12.8409L51.5099 35.1708C51.3804 36.2468 50.8928 37.2348 50.1385 37.9499C49.3841 38.665 48.4147 39.058 47.4118 39.0554Z" fill="#F1F5F8"/>
<ellipse cx="34.5" cy="23" rx="31.5" ry="34" stroke="#F1F5F8" stroke-width="6"/>
</svg>
