<svg width="89" height="117" viewBox="0 0 89 117" fill="none" xmlns="http://www.w3.org/2000/svg">
<g opacity="0.4">
<path d="M95.4149 105.903H44.5815C42.6112 105.909 40.7062 105.143 39.222 103.75C37.7377 102.357 36.7757 100.431 36.5154 98.331L31.008 54.6301C30.8713 53.5571 31.0471 52.465 31.5113 51.5038C31.9755 50.5427 32.7054 49.7599 33.6004 49.2629C34.4954 48.766 35.5116 48.5795 36.5093 48.7289C37.5069 48.8784 38.437 49.3565 39.1716 50.0975L48.2612 59.1364C48.7416 59.6357 49.3124 60.0234 49.9382 60.2755C50.5639 60.5276 51.2311 60.6387 51.8984 60.6018C52.5658 60.565 53.2189 60.381 53.8173 60.0613C54.4157 59.7416 54.9465 59.293 55.3769 58.7434L66.2454 44.9624C66.7029 44.3782 67.2736 43.9085 67.9177 43.5863C68.5617 43.2641 69.2635 43.0972 69.9738 43.0972C70.6842 43.0972 71.386 43.2641 72.03 43.5863C72.674 43.9085 73.2448 44.3782 73.7023 44.9624L84.6195 58.7434C85.0459 59.2845 85.5699 59.7269 86.1599 60.0439C86.75 60.3608 87.3937 60.5457 88.0521 60.5873C88.7106 60.629 89.37 60.5265 89.9905 60.2861C90.611 60.0457 91.1797 59.6724 91.6621 59.1888L100.752 50.1499C101.479 49.3835 102.412 48.8813 103.418 48.7139C104.425 48.5464 105.455 48.7222 106.363 49.2166C107.272 49.7109 108.014 50.4989 108.485 51.4699C108.956 52.4408 109.132 53.546 108.988 54.6301L103.481 98.3048C103.226 100.409 102.266 102.342 100.782 103.74C99.2969 105.139 97.3889 105.908 95.4149 105.903Z" fill="#F1F5F8"/>
<ellipse cx="70" cy="74.5" rx="62" ry="66.5" stroke="#F1F5F8" stroke-width="12"/>
</g>
</svg>
