<svg width="48" height="61" viewBox="0 0 48 61" fill="none" xmlns="http://www.w3.org/2000/svg">
<path opacity="0.4" d="M24.3958 32.3333C24.3958 36.8437 27.8345 40.5 32.0764 40.5H39.2083C43.7532 40.5 47.4375 36.5825 47.4375 31.75C47.4375 26.9175 43.7532 23 39.2083 23H32.625C28.0802 23 24.3958 19.0825 24.3958 14.25C24.3958 9.41751 28.0802 5.5 32.625 5.5H39.7569C43.9988 5.5 47.4375 9.15634 47.4375 13.6667M35.9167 0.25V5.5M35.9167 40.5V45.75M68.8333 23C68.8333 42.33 54.096 58 35.9167 58C17.7373 58 3 42.33 3 23C3 3.67003 17.7373 -12 35.9167 -12C54.096 -12 68.8333 3.67003 68.8333 23Z" stroke="#F1F5F8" stroke-width="6" stroke-linecap="round" stroke-linejoin="round"/>
</svg>
