<svg width="112" height="141" viewBox="0 0 112 141" fill="none" xmlns="http://www.w3.org/2000/svg">
<path opacity="0.4" d="M51.5833 101.583C51.5833 111.409 59.0701 119.375 68.3056 119.375H83.8333C93.7284 119.375 101.75 110.84 101.75 100.312C101.75 89.7846 93.7284 81.25 83.8333 81.25H69.5C59.6049 81.25 51.5833 72.7154 51.5833 62.1875C51.5833 51.6596 59.6049 43.125 69.5 43.125H85.0278C94.2632 43.125 101.75 51.0906 101.75 60.9167M76.6667 31.6875V43.125M76.6667 119.375V130.812M148.333 81.25C148.333 123.362 116.247 157.5 76.6667 157.5C37.0863 157.5 5 123.362 5 81.25C5 39.1383 37.0863 5 76.6667 5C116.247 5 148.333 39.1383 148.333 81.25Z" stroke="#F1F5F8" stroke-width="10" stroke-linecap="round" stroke-linejoin="round"/>
</svg>
