<svg width="35" height="38" viewBox="0 0 35 38" fill="none" xmlns="http://www.w3.org/2000/svg">
<g filter="url(#filter0_d_32077_3446)">
<path d="M10.5596 3.16699H13.6396C13.9367 3.16699 14.1668 3.39631 14.167 3.69336C14.167 3.99055 13.9368 4.2207 13.6396 4.2207H10.5596C7.78947 4.22094 5.55394 6.47172 5.55371 9.22656V12.3066C5.55371 12.5996 5.31446 12.834 5.02637 12.834C4.72932 12.8338 4.5 12.6037 4.5 12.3066V9.22656C4.50023 5.88971 7.22272 3.16723 10.5596 3.16699Z" fill="white" stroke="white"/>
<path d="M21.0264 3.16699H24.1064C27.4435 3.16699 30.1668 5.88957 30.167 9.22656V12.3066C30.167 12.6038 29.9368 12.834 29.6396 12.834C29.3517 12.8338 29.1133 12.5995 29.1133 12.3066V9.22656C29.113 6.45632 26.8615 4.2207 24.1064 4.2207H21.0264C20.7335 4.22054 20.5 3.98136 20.5 3.69336C20.5002 3.4055 20.7336 3.16715 21.0264 3.16699Z" fill="white" stroke="white"/>
<path d="M29.6396 20.4062C29.9276 20.4062 30.1668 20.6398 30.167 20.9326V22.7725C30.167 26.1097 27.4436 28.833 24.1064 28.833H22.2529C21.9651 28.8328 21.7268 28.5993 21.7266 28.3066C21.7266 28.0186 21.9601 27.7795 22.2529 27.7793H24.1064C26.8769 27.7793 29.1133 25.5276 29.1133 22.7725V20.9326C29.1134 20.6447 29.3469 20.4064 29.6396 20.4062Z" fill="white" stroke="white"/>
<path d="M5.02637 19.167C5.32346 19.167 5.55356 19.3963 5.55371 19.6934V22.7734C5.55371 25.5437 7.80459 27.78 10.5596 27.7803H13.6396C13.9276 27.7803 14.1668 28.0138 14.167 28.3066C14.167 28.6038 13.9368 28.834 13.6396 28.834H10.5596C7.22258 28.8338 4.5 26.1105 4.5 22.7734V19.6934C4.50015 19.3964 4.72942 19.1671 5.02637 19.167Z" fill="white" stroke="white"/>
<path d="M8.71973 15.4736H25.9463C26.2392 15.4736 26.4735 15.712 26.4736 16C26.4736 16.2881 26.2393 16.5273 25.9463 16.5273H8.71973C8.42689 16.5272 8.19336 16.288 8.19336 16C8.1935 15.748 8.37237 15.534 8.61328 15.4844L8.71973 15.4736Z" fill="white" stroke="white"/>
<path d="M23.6328 18.8066V19.0264C23.6328 20.9636 22.07 22.5264 20.1328 22.5264H14.5332C12.596 22.5264 11.0332 20.9636 11.0332 19.0264V18.8066H23.6328Z" fill="white" stroke="white"/>
<path d="M14.5332 9.47363H20.1328C22.07 9.47363 23.6328 11.0364 23.6328 12.9736V13.1934H11.0332V12.9736C11.0332 11.0364 12.596 9.47363 14.5332 9.47363Z" fill="white" stroke="white"/>
</g>
<defs>
<filter id="filter0_d_32077_3446" x="0" y="2.66699" width="34.666" height="34.667" filterUnits="userSpaceOnUse" color-interpolation-filters="sRGB">
<feFlood flood-opacity="0" result="BackgroundImageFix"/>
<feColorMatrix in="SourceAlpha" type="matrix" values="0 0 0 0 0 0 0 0 0 0 0 0 0 0 0 0 0 0 127 0" result="hardAlpha"/>
<feOffset dy="4"/>
<feGaussianBlur stdDeviation="2"/>
<feComposite in2="hardAlpha" operator="out"/>
<feColorMatrix type="matrix" values="0 0 0 0 0 0 0 0 0 0 0 0 0 0 0 0 0 0 0.25 0"/>
<feBlend mode="normal" in2="BackgroundImageFix" result="effect1_dropShadow_32077_3446"/>
<feBlend mode="normal" in="SourceGraphic" in2="effect1_dropShadow_32077_3446" result="shape"/>
</filter>
</defs>
</svg>
