<svg width="21" height="20" viewBox="0 0 21 20" fill="none" xmlns="http://www.w3.org/2000/svg">
<path d="M9.43695 1.55219C9.66743 1.08525 9.78268 0.851784 9.93913 0.777191C10.0752 0.712291 10.2334 0.712291 10.3695 0.777191C10.526 0.851784 10.6412 1.08525 10.8717 1.55219L13.0584 5.98216C13.1264 6.12001 13.1604 6.18894 13.2101 6.24245C13.2542 6.28984 13.307 6.32823 13.3656 6.3555C13.4319 6.3863 13.5079 6.39742 13.66 6.41965L18.5513 7.13458C19.0664 7.20987 19.3239 7.24751 19.4431 7.37331C19.5468 7.48277 19.5955 7.63317 19.5758 7.78265C19.5531 7.95446 19.3667 8.13606 18.9938 8.49926L15.4557 11.9453C15.3455 12.0527 15.2903 12.1064 15.2547 12.1703C15.2232 12.2269 15.203 12.2891 15.1952 12.3534C15.1864 12.426 15.1994 12.5019 15.2254 12.6536L16.0603 17.521C16.1483 18.0344 16.1923 18.2911 16.1096 18.4434C16.0376 18.5759 15.9097 18.6689 15.7614 18.6964C15.5909 18.7279 15.3604 18.6067 14.8994 18.3643L10.5267 16.0647C10.3904 15.9931 10.3223 15.9572 10.2505 15.9432C10.187 15.9307 10.1216 15.9307 10.0581 15.9432C9.98632 15.9572 9.9182 15.9931 9.78195 16.0647L5.40922 18.3643C4.94821 18.6067 4.71771 18.7279 4.54727 18.6964C4.39898 18.6689 4.27102 18.5759 4.19903 18.4434C4.1163 18.2911 4.16032 18.0344 4.24837 17.521L5.08318 12.6536C5.10921 12.5019 5.12222 12.426 5.11342 12.3534C5.10562 12.2891 5.08541 12.2269 5.0539 12.1703C5.01832 12.1064 4.96317 12.0527 4.85288 11.9453L1.31486 8.49926C0.94196 8.13606 0.755512 7.95446 0.732823 7.78265C0.713083 7.63317 0.76185 7.48277 0.865548 7.37331C0.984732 7.24751 1.24227 7.20987 1.75734 7.13458L6.64861 6.41965C6.80072 6.39742 6.87678 6.3863 6.94301 6.3555C7.00166 6.32823 7.05446 6.28984 7.09848 6.24245C7.1482 6.18894 7.18223 6.12001 7.25027 5.98216L9.43695 1.55219Z" stroke="black" stroke-width="1.45703" stroke-linecap="round" stroke-linejoin="round"/>
</svg>
