<svg width="55" height="55" viewBox="0 0 55 55" fill="none" xmlns="http://www.w3.org/2000/svg">
<path d="M29.7917 18.9583H24.375V13.5417H29.7917M29.7917 40.625H24.375V24.375H29.7917M27.0833 0C23.5267 0 20.0049 0.700531 16.719 2.0616C13.4331 3.42266 10.4474 5.41761 7.93253 7.93253C2.85341 13.0116 0 19.9004 0 27.0833C0 34.2663 2.85341 41.155 7.93253 46.2341C10.4474 48.7491 13.4331 50.744 16.719 52.1051C20.0049 53.4661 23.5267 54.1667 27.0833 54.1667C34.2663 54.1667 41.155 51.3133 46.2341 46.2341C51.3133 41.155 54.1667 34.2663 54.1667 27.0833C54.1667 23.5267 53.4661 20.0049 52.1051 16.719C50.744 13.4331 48.7491 10.4474 46.2341 7.93253C43.7192 5.41761 40.7336 3.42266 37.4477 2.0616C34.1618 0.700531 30.64 0 27.0833 0Z" fill="#E6242A"/>
</svg>
