<svg width="58" height="58" viewBox="0 0 58 58" fill="none" xmlns="http://www.w3.org/2000/svg">
<path d="M28.5833 55.6667C43.541 55.6667 55.6667 43.541 55.6667 28.5833C55.6667 13.6256 43.541 1.5 28.5833 1.5C13.6256 1.5 1.5 13.6256 1.5 28.5833C1.5 43.541 13.6256 55.6667 28.5833 55.6667Z" fill="#009846"/>
<path d="M16.3958 28.5833L24.5208 36.7083L40.7708 20.4583M55.6667 28.5833C55.6667 43.541 43.541 55.6667 28.5833 55.6667C13.6256 55.6667 1.5 43.541 1.5 28.5833C1.5 13.6256 13.6256 1.5 28.5833 1.5C43.541 1.5 55.6667 13.6256 55.6667 28.5833Z" stroke="white" stroke-width="3" stroke-linecap="round" stroke-linejoin="round"/>
</svg>
