<svg width="18" height="18" viewBox="0 0 18 18" fill="none" xmlns="http://www.w3.org/2000/svg">
<path d="M7.7793 2.26465C8.16473 1.55168 9.02378 1.30508 9.69727 1.71191C9.91493 1.84348 10.0952 2.03435 10.2197 2.26465L16.2988 13.5098C16.6843 14.2232 16.4494 15.1319 15.7754 15.5391C15.5631 15.6672 15.3225 15.7344 15.0781 15.7344H2.9209C2.14557 15.7342 1.51562 15.0689 1.51562 14.2471C1.5157 13.9884 1.57983 13.7343 1.70117 13.5098L7.7793 2.26465ZM7.99219 6.74609L7.10938 10.4961L7.10547 10.5156H8.97852L7.58984 14.9951L7.61621 15.0098L11.6377 9.75977L11.6562 9.73438H9.77148L10.7715 6.73438H7.99512L7.99219 6.74609Z" fill="white" stroke="white" stroke-width="0.03125"/>
</svg>
