<svg width="18" height="18" viewBox="0 0 18 18" fill="none" xmlns="http://www.w3.org/2000/svg">
<g clip-path="url(#clip0_32207_3054)">
<path d="M17.5922 7.20342L14.842 9.95369L7.2039 17.5917C7.15817 17.6377 7.10382 17.6741 7.04398 17.699C6.98413 17.7238 6.91996 17.7366 6.85515 17.7366C6.79035 17.7366 6.72618 17.7238 6.66633 17.699C6.60648 17.6741 6.55213 17.6377 6.5064 17.5917L5.12195 16.2069C5.04205 16.128 4.99171 16.024 4.97936 15.9124C4.967 15.8008 4.99339 15.6883 5.0541 15.5938C5.29358 15.2277 5.39974 14.7903 5.35473 14.3551C5.30972 13.92 5.11629 13.5136 4.80694 13.2042C4.4976 12.8949 4.0912 12.7015 3.65604 12.6565C3.22088 12.6115 2.78349 12.7176 2.41738 12.9571C2.32293 13.0178 2.21048 13.0443 2.09886 13.032C1.98723 13.0197 1.88322 12.9694 1.80426 12.8896L0.408553 11.4939C0.362632 11.4482 0.326195 11.3938 0.301333 11.334C0.27647 11.2741 0.263672 11.2099 0.263672 11.1451C0.263672 11.0803 0.27647 11.0162 0.301333 10.9563C0.326195 10.8965 0.362632 10.8421 0.408553 10.7964L10.7969 0.408064C10.8426 0.362144 10.897 0.325707 10.9568 0.300845C11.0166 0.275982 11.0808 0.263184 11.1456 0.263184C11.2104 0.263184 11.2746 0.275982 11.3344 0.300845C11.3943 0.325707 11.4486 0.362144 11.4944 0.408064L12.889 1.80306C12.9689 1.88205 13.0193 1.98613 13.0316 2.09783C13.0439 2.20953 13.0174 2.32206 12.9565 2.41654C12.7175 2.78269 12.6117 3.21992 12.6568 3.65486C12.702 4.08979 12.8954 4.49594 13.2046 4.80514C13.5138 5.11434 13.92 5.30776 14.3549 5.35294C14.7899 5.39812 15.2271 5.2923 15.5932 5.05326C15.6879 4.99237 15.8006 4.96594 15.9125 4.97843C16.0244 4.99091 16.1285 5.04155 16.2074 5.12181L17.5915 6.50592C17.6375 6.5516 17.674 6.60591 17.6989 6.66573C17.7238 6.72556 17.7367 6.78971 17.7368 6.85452C17.7368 6.91933 17.7241 6.98351 17.6993 7.04338C17.6745 7.10325 17.6381 7.15764 17.5922 7.20342Z" fill="white"/>
<path d="M17.5928 6.50586L16.5381 5.45117C16.584 5.4969 16.6204 5.55125 16.6453 5.6111C16.6702 5.67095 16.683 5.73512 16.683 5.79992C16.683 5.86473 16.6702 5.9289 16.6453 5.98875C16.6204 6.04859 16.584 6.10294 16.5381 6.14867L13.7878 8.89895L6.14977 16.537C6.05784 16.6292 5.93313 16.6812 5.80293 16.6817C5.67273 16.6822 5.54765 16.631 5.45508 16.5395L6.50695 17.5917C6.55268 17.6376 6.60703 17.674 6.66688 17.6989C6.72673 17.7238 6.7909 17.7366 6.8557 17.7366C6.92051 17.7366 6.98468 17.7238 7.04453 17.6989C7.10437 17.674 7.15872 17.6376 7.20445 17.5917L14.8425 9.95363L17.5928 7.20336C17.6387 7.15763 17.6751 7.10328 17.7 7.04343C17.7249 6.98358 17.7377 6.91942 17.7377 6.85461C17.7377 6.7898 17.7249 6.72563 17.7 6.66579C17.6751 6.60594 17.6387 6.55159 17.5928 6.50586Z" fill="white"/>
<path d="M9.10859 3.84736C9.08411 3.87187 9.05503 3.8913 9.02303 3.90456C8.99103 3.91783 8.95673 3.92465 8.92209 3.92465C8.88745 3.92465 8.85315 3.91783 8.82115 3.90456C8.78915 3.8913 8.76007 3.87187 8.73559 3.84736L8.04688 3.15865L8.41988 2.78564L9.10859 3.47471C9.13309 3.49916 9.15251 3.52821 9.16577 3.56018C9.17903 3.59215 9.18585 3.62642 9.18585 3.66103C9.18585 3.69565 9.17903 3.72992 9.16577 3.76189C9.15251 3.79386 9.13309 3.82291 9.10859 3.84736ZM15.2152 9.581L14.8422 9.954L14.1535 9.26529C14.1055 9.21559 14.0789 9.14899 14.0794 9.07986C14.08 9.01073 14.1077 8.94458 14.1566 8.89567C14.2054 8.84676 14.2715 8.819 14.3407 8.81836C14.4098 8.81773 14.4764 8.84428 14.5262 8.89228L15.2152 9.581ZM11.9911 6.99385C11.9564 6.99386 11.9222 6.98703 11.8902 6.97375C11.8582 6.96048 11.8292 6.94103 11.8047 6.9165L11.1157 6.22744C11.0677 6.17769 11.0411 6.11107 11.0417 6.04194C11.0424 5.9728 11.0701 5.90669 11.119 5.85782C11.168 5.80896 11.2341 5.78126 11.3032 5.78069C11.3724 5.78012 11.439 5.80673 11.4887 5.85478L12.1777 6.5435C12.2145 6.58044 12.2396 6.62745 12.2497 6.6786C12.2598 6.72975 12.2545 6.78276 12.2346 6.83093C12.2146 6.87909 12.1808 6.92027 12.1375 6.94927C12.0942 6.97826 12.0432 6.99377 11.9911 6.99385ZM13.6195 8.62193C13.5849 8.62201 13.5506 8.61524 13.5186 8.60203C13.4867 8.58882 13.4576 8.56942 13.4332 8.54494L12.7441 7.85588C12.7196 7.83139 12.7002 7.80231 12.6869 7.77031C12.6737 7.73831 12.6668 7.70401 12.6668 7.66938C12.6668 7.63474 12.6737 7.60044 12.6869 7.56844C12.7002 7.53644 12.7196 7.50736 12.7441 7.48287C12.7686 7.45838 12.7977 7.43895 12.8297 7.4257C12.8617 7.41244 12.896 7.40562 12.9306 7.40562C12.9652 7.40562 12.9995 7.41244 13.0315 7.4257C13.0635 7.43895 13.0926 7.45838 13.1171 7.48287L13.8062 8.17193C13.843 8.20883 13.8681 8.25582 13.8782 8.30697C13.8884 8.35812 13.8831 8.41113 13.8632 8.4593C13.8432 8.50746 13.8094 8.54862 13.766 8.57757C13.7226 8.60652 13.6716 8.62196 13.6195 8.62193ZM10.3626 5.36541C10.328 5.36542 10.2937 5.35859 10.2617 5.34532C10.2298 5.33204 10.2007 5.31259 10.1763 5.28807L9.48723 4.599C9.46205 4.57467 9.44198 4.54556 9.42818 4.51339C9.41437 4.48121 9.40712 4.44661 9.40683 4.4116C9.40654 4.37659 9.41323 4.34187 9.4265 4.30948C9.43978 4.27708 9.45937 4.24765 9.48414 4.2229C9.50891 4.19816 9.53835 4.17859 9.57076 4.16535C9.60317 4.15211 9.6379 4.14545 9.67291 4.14577C9.70792 4.1461 9.74251 4.15339 9.77468 4.16722C9.80684 4.18105 9.83592 4.20115 9.86023 4.22635L10.5493 4.91506C10.5861 4.952 10.6111 4.99901 10.6212 5.05016C10.6314 5.10132 10.6261 5.15432 10.6061 5.20249C10.5862 5.25066 10.5524 5.29183 10.5091 5.32083C10.4657 5.34982 10.4148 5.36534 10.3626 5.36541Z" fill="#DE5D0A"/>
</g>
<defs>
<clipPath id="clip0_32207_3054">
<rect width="18" height="18" fill="white"/>
</clipPath>
</defs>
</svg>
