<svg width="23" height="23" viewBox="0 0 23 23" fill="none" xmlns="http://www.w3.org/2000/svg">
<path d="M15.56 7.08379V3.16453C15.56 2.23298 15.56 1.7672 15.3638 1.48096C15.1923 1.23088 14.9268 1.06099 14.6279 1.01012C14.2858 0.951903 13.8629 1.14709 13.017 1.53746L3.0821 6.12282C2.32777 6.47098 1.9506 6.64505 1.67436 6.91503C1.43014 7.1537 1.24373 7.44505 1.12937 7.7668C1 8.13075 1 8.54615 1 9.37695V14.9238M16.12 14.3638H16.1312M1 10.6678L1 18.0598C1 19.3143 1 19.9416 1.24415 20.4207C1.4589 20.8422 1.80158 21.1849 2.22306 21.3996C2.70222 21.6438 3.32948 21.6438 4.584 21.6438H17.576C18.8305 21.6438 19.4578 21.6438 19.9369 21.3996C20.3584 21.1849 20.7011 20.8422 20.9159 20.4207C21.16 19.9416 21.16 19.3143 21.16 18.0598V10.6678C21.16 9.41328 21.16 8.78602 20.9159 8.30685C20.7011 7.88537 20.3584 7.5427 19.9369 7.32794C19.4578 7.08379 18.8305 7.08379 17.576 7.08379L4.584 7.08379C3.32948 7.08379 2.70222 7.08379 2.22306 7.32794C1.80158 7.54269 1.4589 7.88537 1.24415 8.30685C1 8.78602 1 9.41327 1 10.6678ZM16.68 14.3638C16.68 14.6731 16.4293 14.9238 16.12 14.9238C15.8107 14.9238 15.56 14.6731 15.56 14.3638C15.56 14.0545 15.8107 13.8038 16.12 13.8038C16.4293 13.8038 16.68 14.0545 16.68 14.3638Z" stroke="white" stroke-width="2" stroke-linecap="round" stroke-linejoin="round"/>
</svg>
