<svg width="73" height="73" viewBox="0 0 73 73" fill="none" xmlns="http://www.w3.org/2000/svg">
<path d="M0 12C0 10.8954 0.895431 10 2 10H14V22H0V12Z" fill="#AF4500"/>
<path d="M63 70C63 71.6569 61.6569 73 60 73H49V60H63V70Z" fill="#AF4500"/>
<path d="M0.00074482 11.3137C6.24913 5.06532 16.3798 5.06532 22.6282 11.3137L61.4153 50.1008C67.6637 56.3492 67.6637 66.4799 61.4153 72.7283V72.7283L0.00074482 11.3137V11.3137Z" fill="#DE5D0A"/>
<path d="M19.0336 13.9699L19.7902 14.7265L18.9346 18.3964L22.647 17.5833L23.3611 18.2974L18.6447 19.2803L16.4881 21.437L15.8941 20.843L18.0508 18.6863L19.0336 13.9699ZM22.9964 21.1571C24.0217 22.1824 24.05 23.6391 23.0247 24.6644C22.0065 25.6826 20.5428 25.6614 19.5175 24.6361C18.4922 23.6108 18.4709 22.1471 19.4892 21.1288C20.5003 20.1177 21.957 20.1177 22.9964 21.1571ZM20.0831 21.7228C19.369 22.437 19.3336 23.434 20.0266 24.127C20.7337 24.8341 21.7307 24.7704 22.4307 24.0704C23.1308 23.3704 23.1944 22.3733 22.4802 21.6592C21.7873 20.9662 20.7832 21.0228 20.0831 21.7228ZM23.4613 25.9354L25.5332 23.8636L26.0847 24.4151L24.0765 26.4233C23.5745 26.9253 23.426 27.5264 23.9563 28.0567C24.6422 28.7426 25.4766 28.587 26.2261 27.8375L27.8666 26.197L28.4182 26.7486L25.8443 29.3224C25.6392 29.5275 25.314 29.9093 25.1372 30.0861L24.6139 29.5629C24.8473 29.3295 24.9251 29.2234 25.1443 29.0042L25.1301 28.9901C24.5927 29.1881 23.8998 29.0184 23.3906 28.5093C22.5704 27.689 22.6623 26.7344 23.4613 25.9354ZM29.0757 34.1943C28.3544 33.473 28.2271 32.5821 28.8282 31.9811C29.5919 31.2174 30.5606 31.3942 32.0314 32.8649L32.2859 33.1195L32.3779 33.0276C32.8658 32.5397 32.8092 31.9881 32.293 31.4719C31.9324 31.1113 31.4586 30.8638 30.9495 30.8497L30.9636 30.1426C31.6425 30.1426 32.3001 30.4608 32.788 30.9487C33.7426 31.9033 33.7143 32.7942 32.8092 33.6993L31.3243 35.1842C31.2111 35.2974 31.0202 35.5166 30.8293 35.7782L30.299 35.2479C30.3555 35.1347 30.4757 35.0004 30.7586 34.7176L30.7444 34.7034C30.1222 34.8307 29.5353 34.6539 29.0757 34.1943ZM31.2111 32.9781C30.5606 32.3275 29.91 32.0871 29.4787 32.5185C29.1039 32.8932 29.1676 33.3528 29.6343 33.8195C30.207 34.3923 30.9849 34.4206 31.692 33.7135L31.8192 33.5862L31.2111 32.9781ZM36.8083 34.969C36.8931 35.0538 36.9497 35.1245 36.9992 35.2306L36.4052 35.7539C36.3274 35.6195 36.2567 35.5205 36.1507 35.4144C35.5143 34.778 34.7435 34.8841 33.9798 35.6478L32.3393 37.2883L31.7878 36.7367L34.3617 34.1629C34.5809 33.9437 34.8708 33.5972 35.0688 33.3992L35.592 33.9224C35.387 34.1275 35.2809 34.2619 35.0617 34.4811L35.0759 34.4952C35.6274 34.2972 36.3204 34.4811 36.8083 34.969ZM39.0497 37.2104C39.9124 38.0731 40.075 39.3246 38.8446 40.555L38.7103 40.6893L36.0374 38.0165C35.4788 38.6882 35.4859 39.5863 36.0657 40.1661C36.5253 40.6257 37.0132 40.7883 37.6143 40.7106L37.7062 41.453C36.9071 41.5591 36.2283 41.347 35.5566 40.6752C34.5313 39.6499 34.6232 38.2428 35.6131 37.2528C36.6314 36.2346 38.0668 36.2275 39.0497 37.2104ZM38.583 39.6287C39.1275 39.0276 39.1275 38.3064 38.5123 37.6912C37.9466 37.1255 37.19 37.0336 36.5041 37.5498L38.583 39.6287ZM40.5981 45.5471L40.0466 44.9955L45.3923 39.6498L45.9439 40.2013L43.4478 42.6974L43.4619 42.7116C43.9922 42.5772 44.6286 42.7893 45.0741 43.2348C45.9014 44.0621 45.8024 45.0097 45.0034 45.8087L42.9316 47.8805L42.38 47.329L44.3882 45.3208C44.8973 44.8117 45.0388 44.2177 44.5084 43.6874C43.8296 43.0085 43.0023 43.1429 42.2386 43.9066L40.5981 45.5471ZM48.876 47.0367C49.7386 47.8994 49.9013 49.1509 48.6709 50.3813L48.5366 50.5156L45.8637 47.8428C45.3051 48.5145 45.3122 49.4126 45.892 49.9924C46.3516 50.452 46.8395 50.6146 47.4406 50.5369L47.5325 51.2793C46.7334 51.3854 46.0546 51.1733 45.3829 50.5015C44.3576 49.4762 44.4495 48.0691 45.4394 47.0791C46.4577 46.0609 47.8931 46.0538 48.876 47.0367ZM48.4093 49.455C48.9538 48.8539 48.9538 48.1327 48.3386 47.5175C47.7729 46.9518 47.0163 46.8599 46.3304 47.3761L48.4093 49.455ZM52.9253 51.086C53.0102 51.1709 53.0667 51.2416 53.1162 51.3477L52.5223 51.8709C52.4445 51.7366 52.3738 51.6376 52.2677 51.5315C51.6313 50.8951 50.8606 51.0012 50.0969 51.7648L48.4564 53.4053L47.9049 52.8538L50.4787 50.2799C50.6979 50.0607 50.9879 49.7142 51.1858 49.5163L51.7091 50.0395C51.504 50.2446 51.398 50.3789 51.1788 50.5981L51.1929 50.6123C51.7445 50.4143 52.4374 50.5981 52.9253 51.086ZM55.1667 53.3274C56.0294 54.1901 56.192 55.4417 54.9617 56.6721L54.8273 56.8064L52.1545 54.1335C51.5959 54.8053 51.6029 55.7033 52.1828 56.2832C52.6424 56.7428 53.1303 56.9054 53.7313 56.8276L53.8232 57.5701C53.0242 57.6762 52.3454 57.464 51.6736 56.7923C50.6483 55.767 50.7403 54.3598 51.7302 53.3699C52.7484 52.3516 54.1839 52.3446 55.1667 53.3274ZM54.7001 55.7458C55.2445 55.1447 55.2445 54.4235 54.6293 53.8083C54.0637 53.2426 53.3071 53.1507 52.6212 53.6669L54.7001 55.7458Z" fill="white"/>
</svg>
